<?xml version="1.0" encoding="iso-8859-1"?>
<!-- Uploaded to: SVG Repo, www.svgrepo.com, Generator: SVG Repo Mixer Tools -->
<!DOCTYPE svg PUBLIC "-//W3C//DTD SVG 1.1//EN" "http://www.w3.org/Graphics/SVG/1.1/DTD/svg11.dtd">
<svg fill="#000000" version="1.1" id="Capa_1" xmlns="http://www.w3.org/2000/svg" xmlns:xlink="http://www.w3.org/1999/xlink" 
	 width="800px" height="800px" viewBox="0 0 576.144 576.145"
	 xml:space="preserve">
<g>
	<g>
		<path d="M277.138,81.686c-11.775,0-20.657,8.707-20.657,20.249v235.506c-5.349-8.631-10.951-17.096-16.458-25.424
			c-23.583-35.634-45.855-69.29-47.234-110.306c-0.334-9.919-7.678-19.959-21.073-19.959c-5.765,0-11.208,2.211-14.937,6.067
			c-3.656,3.778-5.484,8.772-5.292,14.439c1.697,50.531,27.858,90.715,53.154,129.576c8.062,12.387,16.401,25.195,23.75,38.076
			c14.868,26.051,24.056,56.189,28.095,92.133v85.633c0,1.754,0.22,3.467,0.665,5.193l-0.017,0.256
			c-0.049,0.752-0.094,1.502-0.147,2.248c-0.412,5.713,1.257,10.764,4.831,14.604c3.647,3.92,9.078,6.168,14.9,6.168
			c10,0,20.608-6.732,21.538-19.596c2.722-37.586,2.575-68.373-0.457-96.834V373.98c13.913-21.758,51.67-32.455,71.417-41.334
			c28.687-12.896,52.991-31.232,63.423-61.897c7.646-22.481-27.825-32.048-35.41-9.764c-12.958,38.099-67.059,45.329-97.842,63.272
			c-0.543,0.314-1.053,0.674-1.588,1V101.935C297.794,90.388,288.913,81.686,277.138,81.686z"/>
		<path d="M45.724,174.849c-11.562,36.92-3.04,82.738,22.244,119.573c23.003,33.512,55.994,54.006,90.519,56.227
			c0.559,0.035,1.11,0.053,1.644,0.053c11.82,0,20.682-8.846,21.073-21.033c0.359-11.162-7.116-23.533-21.669-24.467
			c-23.076-1.486-39.253-16.37-48.764-28.593c-18.474-23.746-27.573-57.496-22.636-83.983c5.892-31.64,35.1-57.381,65.108-57.381
			c13.117,0,25.096,4.72,35.61,14.035c1.151,1.02,2.403,1.917,3.811,2.733c3.786,3.325,8.613,5.145,13.717,5.145
			c8.254,0,16.349-4.659,20.62-11.869c4.035-6.814,4.08-14.864,0.126-22.081c-12.733-23.231,3.093-49.05,25.312-62.546
			c16.312-9.91,39.156-14.933,67.899-14.933c6.369,0,12.938,0.232,20.09,0.709c27.928,1.865,52.311,15.782,68.659,39.197
			c17.743,25.414,23.239,58.271,14.77,88.05c-3.46,6.908-3.265,15.659,0.571,22.595c3.822,6.912,10.673,11.098,18.8,11.481
			c13.493,0.641,24.611,7.85,33.049,21.428c16.055,25.839,16.393,63.835,7.499,84.216c-17.014,38.988-68.516,47.482-105.778,50.48
			c-1.045,0.086-2.081,0.246-3.195,0.494c-14.521,0.262-22.248,11.262-22.374,22.131c-0.151,12.664-8.956,21.814-21.412,22.252
			c-14.521,0.51-22.15,12.582-21.959,23.688c0.221,12.633,9.315,21.801,21.62,21.801c0.298,0,0.604-0.006,0.91-0.018
			c29.408-1.027,53.966-19.441,62.804-46.447c77.687-9.469,123.917-41.652,137.459-95.717
			c13.158-52.521-9.89-122.697-60.176-143.603c6.605-38.956-2.595-77.336-26.23-108.777C419.395,25.055,378.709,3.476,333.8,0.481
			C329.027,0.164,324.188,0,319.422,0c-42.627,0-81.661,12.656-109.902,35.639c-17.132,13.937-28.389,34.974-31.273,57.748
			c-8.017-2.142-16.259-3.219-24.61-3.223C105.716,90.16,61.338,124.987,45.724,174.849z"/>
	</g>
</g>
</svg>