<svg xmlns="http://www.w3.org/2000/svg" viewBox="0 0 100 40" fill="none">
  <!-- Main branch -->
  <path d="M10,35 Q20,30 30,32 Q40,34 50,30 Q60,26 70,28 Q80,30 90,25" stroke="#8B4513" stroke-width="3" fill="none" opacity="0.6"/>
  
  <!-- Small branches -->
  <path d="M25,31 Q28,25 32,27" stroke="#A0522D" stroke-width="2" fill="none" opacity="0.5"/>
  <path d="M45,29 Q48,23 52,25" stroke="#A0522D" stroke-width="2" fill="none" opacity="0.5"/>
  <path d="M65,27 Q68,21 72,23" stroke="#A0522D" stroke-width="2" fill="none" opacity="0.5"/>
  
  <!-- Leaves -->
  <ellipse cx="30" cy="24" rx="3" ry="6" fill="#CD853F" opacity="0.4" transform="rotate(15 30 24)"/>
  <ellipse cx="50" cy="20" rx="3" ry="6" fill="#DEB887" opacity="0.4" transform="rotate(-10 50 20)"/>
  <ellipse cx="70" cy="18" rx="3" ry="6" fill="#CD853F" opacity="0.4" transform="rotate(20 70 18)"/>
  
  <!-- Small twigs -->
  <path d="M20,32 L18,28" stroke="#A0522D" stroke-width="1" opacity="0.4"/>
  <path d="M38,33 L36,29" stroke="#A0522D" stroke-width="1" opacity="0.4"/>
  <path d="M58,27 L56,23" stroke="#A0522D" stroke-width="1" opacity="0.4"/>
  <path d="M78,29 L76,25" stroke="#A0522D" stroke-width="1" opacity="0.4"/>
</svg>
