<svg xmlns="http://www.w3.org/2000/svg" viewBox="0 0 100 40" fill="none">
  <!-- Hexagon pattern (honeycomb/natural geometry) -->
  <polygon points="15,20 20,12 30,12 35,20 30,28 20,28" fill="none" stroke="#8B4513" stroke-width="1.5" opacity="0.5"/>
  <polygon points="35,20 40,12 50,12 55,20 50,28 40,28" fill="none" stroke="#A0522D" stroke-width="1.5" opacity="0.4"/>
  <polygon points="55,20 60,12 70,12 75,20 70,28 60,28" fill="none" stroke="#CD853F" stroke-width="1.5" opacity="0.4"/>
  
  <!-- Connecting lines -->
  <path d="M30,12 L40,12" stroke="#DEB887" stroke-width="1" opacity="0.3"/>
  <path d="M50,12 L60,12" stroke="#DEB887" stroke-width="1" opacity="0.3"/>
  <path d="M30,28 L40,28" stroke="#DEB887" stroke-width="1" opacity="0.3"/>
  <path d="M50,28 L60,28" stroke="#DEB887" stroke-width="1" opacity="0.3"/>
  
  <!-- Center dots -->
  <circle cx="25" cy="20" r="1" fill="#8B4513" opacity="0.4"/>
  <circle cx="45" cy="20" r="1" fill="#A0522D" opacity="0.4"/>
  <circle cx="65" cy="20" r="1" fill="#CD853F" opacity="0.4"/>
</svg>
