<svg xmlns="http://www.w3.org/2000/svg" viewBox="0 0 100 100" fill="none">
  <!-- Saw blade outline -->
  <circle cx="50" cy="50" r="40" fill="none" stroke="#8B4513" stroke-width="2" opacity="0.6"/>
  
  <!-- Saw teeth -->
  <path d="M50,10 L52,15 L48,15 Z" fill="#A0522D" opacity="0.5"/>
  <path d="M71,21 L76,19 L74,25 Z" fill="#A0522D" opacity="0.5"/>
  <path d="M86,46 L90,50 L84,52 Z" fill="#A0522D" opacity="0.5"/>
  <path d="M79,71 L76,76 L74,70 Z" fill="#A0522D" opacity="0.5"/>
  <path d="M54,86 L50,90 L46,86 Z" fill="#A0522D" opacity="0.5"/>
  <path d="M29,79 L24,76 L26,70 Z" fill="#A0522D" opacity="0.5"/>
  <path d="M14,54 L10,50 L16,48 Z" fill="#A0522D" opacity="0.5"/>
  <path d="M21,29 L24,24 L26,30 Z" fill="#A0522D" opacity="0.5"/>
  
  <!-- Center hole -->
  <circle cx="50" cy="50" r="8" fill="none" stroke="#8B4513" stroke-width="1.5" opacity="0.7"/>
  <circle cx="50" cy="50" r="3" fill="#8B4513" opacity="0.3"/>
  
  <!-- Radial lines -->
  <path d="M50,18 L50,42" stroke="#CD853F" stroke-width="0.5" opacity="0.4"/>
  <path d="M50,58 L50,82" stroke="#CD853F" stroke-width="0.5" opacity="0.4"/>
  <path d="M18,50 L42,50" stroke="#CD853F" stroke-width="0.5" opacity="0.4"/>
  <path d="M58,50 L82,50" stroke="#CD853F" stroke-width="0.5" opacity="0.4"/>
</svg>
