<svg xmlns="http://www.w3.org/2000/svg" viewBox="0 0 100 100" fill="none" stroke="currentColor" stroke-width="1.5">
  <!-- Vintage compass rose background -->
  <circle cx="50" cy="50" r="45" stroke-width="1.5" opacity="0.4"/>
  <circle cx="50" cy="50" r="38" stroke-width="1" opacity="0.3"/>
  <circle cx="50" cy="50" r="30" stroke-width="0.8" opacity="0.2"/>
  
  <!-- Compass points -->
  <path d="M50 5 L52 15 L50 12 L48 15 Z" stroke-linejoin="round" opacity="0.7"/>
  <path d="M50 95 L52 85 L50 88 L48 85 Z" stroke-linejoin="round" opacity="0.7"/>
  <path d="M5 50 L15 52 L12 50 L15 48 Z" stroke-linejoin="round" opacity="0.7"/>
  <path d="M95 50 L85 52 L88 50 L85 48 Z" stroke-linejoin="round" opacity="0.7"/>
  
  <!-- Secondary compass points -->
  <path d="M22 22 L28 28 L25 26 L26 25 Z" stroke-linejoin="round" opacity="0.5"/>
  <path d="M78 22 L72 28 L75 26 L74 25 Z" stroke-linejoin="round" opacity="0.5"/>
  <path d="M22 78 L28 72 L25 74 L26 75 Z" stroke-linejoin="round" opacity="0.5"/>
  <path d="M78 78 L72 72 L75 74 L74 75 Z" stroke-linejoin="round" opacity="0.5"/>
  
  <!-- Navigation tree -->
  <path d="M50 75 L50 45" stroke-width="2" stroke-linecap="round"/>
  <path d="M50 45 Q40 35 30 30" stroke-linecap="round"/>
  <path d="M50 45 Q60 35 70 30" stroke-linecap="round"/>
  <path d="M50 55 Q35 45 25 40" stroke-linecap="round"/>
  <path d="M50 55 Q65 45 75 40" stroke-linecap="round"/>
  <path d="M50 35 Q40 25 30 20" stroke-linecap="round"/>
  <path d="M50 35 Q60 25 70 20" stroke-linecap="round"/>
  
  <!-- Compass rose decorations -->
  <circle cx="50" cy="50" r="3" stroke-width="1"/>
  <line x1="47" y1="47" x2="53" y2="53" stroke-width="0.8" opacity="0.8"/>
  <line x1="53" y1="47" x2="47" y2="53" stroke-width="0.8" opacity="0.8"/>
  
  <!-- Degree markings -->
  <line x1="50" y1="15" x2="50" y2="18" stroke-width="0.5" opacity="0.6"/>
  <line x1="50" y1="82" x2="50" y2="85" stroke-width="0.5" opacity="0.6"/>
  <line x1="15" y1="50" x2="18" y2="50" stroke-width="0.5" opacity="0.6"/>
  <line x1="82" y1="50" x2="85" y2="50" stroke-width="0.5" opacity="0.6"/>
  
  <!-- Navigation stars -->
  <circle cx="30" cy="20" r="1" stroke-width="0.8" opacity="0.6"/>
  <circle cx="70" cy="20" r="1" stroke-width="0.8" opacity="0.6"/>
  <circle cx="25" cy="40" r="1" stroke-width="0.8" opacity="0.6"/>
  <circle cx="75" cy="40" r="1" stroke-width="0.8" opacity="0.6"/>
</svg>
