<svg xmlns="http://www.w3.org/2000/svg" viewBox="0 0 100 100" fill="none" stroke="currentColor" stroke-width="1.5">
  <!-- Vintage woodcut border -->
  <rect x="8" y="8" width="84" height="84" stroke-width="2" opacity="0.5"/>
  <rect x="12" y="12" width="76" height="76" stroke-width="1" opacity="0.3"/>
  
  <!-- Ornate corner flourishes -->
  <path d="M8 8 Q15 5 22 8 Q15 15 8 22" stroke-width="1" opacity="0.6"/>
  <path d="M92 8 Q85 5 78 8 Q85 15 92 22" stroke-width="1" opacity="0.6"/>
  <path d="M8 92 Q15 95 22 92 Q15 85 8 78" stroke-width="1" opacity="0.6"/>
  <path d="M92 92 Q85 95 78 92 Q85 85 92 78" stroke-width="1" opacity="0.6"/>
  
  <!-- Cross-hatched tree trunk -->
  <rect x="46" y="55" width="8" height="25" stroke-width="1.5"/>
  <line x1="46" y1="60" x2="54" y2="65" stroke-width="0.5" opacity="0.7"/>
  <line x1="46" y1="65" x2="54" y2="70" stroke-width="0.5" opacity="0.7"/>
  <line x1="46" y1="70" x2="54" y2="75" stroke-width="0.5" opacity="0.7"/>
  <line x1="54" y1="60" x2="46" y2="65" stroke-width="0.5" opacity="0.7"/>
  <line x1="54" y1="65" x2="46" y2="70" stroke-width="0.5" opacity="0.7"/>
  <line x1="54" y1="70" x2="46" y2="75" stroke-width="0.5" opacity="0.7"/>
  
  <!-- Detailed foliage with hatching -->
  <ellipse cx="35" cy="40" rx="12" ry="8" stroke-width="1"/>
  <ellipse cx="65" cy="40" rx="12" ry="8" stroke-width="1"/>
  <ellipse cx="50" cy="30" rx="15" ry="10" stroke-width="1"/>
  
  <!-- Cross-hatching on leaves -->
  <line x1="30" y1="38" x2="40" y2="42" stroke-width="0.3" opacity="0.6"/>
  <line x1="30" y1="42" x2="40" y2="38" stroke-width="0.3" opacity="0.6"/>
  <line x1="60" y1="38" x2="70" y2="42" stroke-width="0.3" opacity="0.6"/>
  <line x1="60" y1="42" x2="70" y2="38" stroke-width="0.3" opacity="0.6"/>
  <line x1="42" y1="27" x2="58" y2="33" stroke-width="0.3" opacity="0.6"/>
  <line x1="42" y1="33" x2="58" y2="27" stroke-width="0.3" opacity="0.6"/>
  
  <!-- Decorative border elements -->
  <circle cx="25" cy="25" r="2" stroke-width="0.8" opacity="0.4"/>
  <circle cx="75" cy="25" r="2" stroke-width="0.8" opacity="0.4"/>
  <circle cx="25" cy="75" r="2" stroke-width="0.8" opacity="0.4"/>
  <circle cx="75" cy="75" r="2" stroke-width="0.8" opacity="0.4"/>
</svg>
