<svg xmlns="http://www.w3.org/2000/svg" viewBox="0 0 100 100" fill="none" stroke="currentColor" stroke-width="1.5">
  <!-- Mandala-style circular pattern -->
  <circle cx="50" cy="50" r="42" stroke-width="1" opacity="0.4"/>
  <circle cx="50" cy="50" r="35" stroke-width="1" opacity="0.3"/>
  <circle cx="50" cy="50" r="28" stroke-width="1" opacity="0.2"/>
  
  <!-- Sacred geometry tree -->
  <polygon points="50,70 45,50 55,50" stroke-linecap="round" stroke-linejoin="round"/>
  <polygon points="50,50 40,35 60,35" stroke-linecap="round" stroke-linejoin="round"/>
  <polygon points="50,35 35,25 65,25" stroke-linecap="round" stroke-linejoin="round"/>
  
  <!-- Radiating lines -->
  <line x1="50" y1="8" x2="50" y2="18" stroke-width="1" opacity="0.6"/>
  <line x1="50" y1="82" x2="50" y2="92" stroke-width="1" opacity="0.6"/>
  <line x1="8" y1="50" x2="18" y2="50" stroke-width="1" opacity="0.6"/>
  <line x1="82" y1="50" x2="92" y2="50" stroke-width="1" opacity="0.6"/>
  
  <!-- Diagonal rays -->
  <line x1="22" y1="22" x2="28" y2="28" stroke-width="1" opacity="0.4"/>
  <line x1="78" y1="22" x2="72" y2="28" stroke-width="1" opacity="0.4"/>
  <line x1="22" y1="78" x2="28" y2="72" stroke-width="1" opacity="0.4"/>
  <line x1="78" y1="78" x2="72" y2="72" stroke-width="1" opacity="0.4"/>
  
  <!-- Central decorative elements -->
  <circle cx="50" cy="30" r="2" stroke-width="0.8" opacity="0.8"/>
  <circle cx="40" cy="40" r="1.5" stroke-width="0.8" opacity="0.6"/>
  <circle cx="60" cy="40" r="1.5" stroke-width="0.8" opacity="0.6"/>
</svg>
