<svg xmlns="http://www.w3.org/2000/svg" viewBox="0 0 100 100" fill="none" stroke="currentColor" stroke-width="1.5">
  <!-- Twisted twin trunk -->
  <path d="M35 80 Q30 60 40 40 Q50 20 45 15" stroke-linecap="round"/>
  <path d="M55 15 Q50 20 60 40 Q70 60 65 80" stroke-linecap="round"/>
  
  <!-- Cross connection -->
  <path d="M40 50 Q50 45 60 50" stroke-linecap="round"/>
  
  <!-- Left side branches -->
  <path d="M35 65 Q25 60 20 55" stroke-linecap="round"/>
  <path d="M38 55 Q28 50 23 45" stroke-linecap="round"/>
  <path d="M42 40 Q32 35 27 30" stroke-linecap="round"/>
  <path d="M45 25 Q35 20 30 15" stroke-linecap="round"/>
  
  <!-- Right side branches -->
  <path d="M65 65 Q75 60 80 55" stroke-linecap="round"/>
  <path d="M62 55 Q72 50 77 45" stroke-linecap="round"/>
  <path d="M58 40 Q68 35 73 30" stroke-linecap="round"/>
  <path d="M55 25 Q65 20 70 15" stroke-linecap="round"/>
  
  <!-- Foliage clusters -->
  <circle cx="20" cy="55" r="4" stroke-width="1"/>
  <circle cx="23" cy="45" r="3" stroke-width="1"/>
  <circle cx="27" cy="30" r="4" stroke-width="1"/>
  <circle cx="30" cy="15" r="3" stroke-width="1"/>
  
  <circle cx="80" cy="55" r="4" stroke-width="1"/>
  <circle cx="77" cy="45" r="3" stroke-width="1"/>
  <circle cx="73" cy="30" r="4" stroke-width="1"/>
  <circle cx="70" cy="15" r="3" stroke-width="1"/>
  
  <!-- Center connection foliage -->
  <circle cx="50" cy="45" r="2" stroke-width="1"/>
</svg>
