<svg xmlns="http://www.w3.org/2000/svg" viewBox="0 0 100 100" fill="none" stroke="currentColor" stroke-width="1.5">
  <!-- Constellation circle -->
  <circle cx="50" cy="50" r="45" stroke-width="1" opacity="0.3"/>
  <circle cx="50" cy="50" r="38" stroke-width="0.8" opacity="0.2"/>
  
  <!-- Tree constellation -->
  <circle cx="50" cy="75" r="1.5" stroke-width="1" opacity="0.9"/>
  <circle cx="45" cy="65" r="1" stroke-width="1" opacity="0.8"/>
  <circle cx="55" cy="65" r="1" stroke-width="1" opacity="0.8"/>
  <circle cx="40" cy="50" r="1.2" stroke-width="1" opacity="0.7"/>
  <circle cx="60" cy="50" r="1.2" stroke-width="1" opacity="0.7"/>
  <circle cx="35" cy="35" r="1" stroke-width="1" opacity="0.6"/>
  <circle cx="65" cy="35" r="1" stroke-width="1" opacity="0.6"/>
  <circle cx="50" cy="25" r="1.5" stroke-width="1" opacity="0.9"/>
  
  <!-- Connecting constellation lines -->
  <line x1="50" y1="75" x2="45" y2="65" stroke-width="0.5" opacity="0.6"/>
  <line x1="50" y1="75" x2="55" y2="65" stroke-width="0.5" opacity="0.6"/>
  <line x1="45" y1="65" x2="40" y2="50" stroke-width="0.5" opacity="0.5"/>
  <line x1="55" y1="65" x2="60" y2="50" stroke-width="0.5" opacity="0.5"/>
  <line x1="40" y1="50" x2="35" y2="35" stroke-width="0.5" opacity="0.4"/>
  <line x1="60" y1="50" x2="65" y2="35" stroke-width="0.5" opacity="0.4"/>
  <line x1="35" y1="35" x2="50" y2="25" stroke-width="0.5" opacity="0.4"/>
  <line x1="65" y1="35" x2="50" y2="25" stroke-width="0.5" opacity="0.4"/>
  
  <!-- Outer star points -->
  <circle cx="20" cy="20" r="0.8" stroke-width="0.8" opacity="0.4"/>
  <circle cx="80" cy="20" r="0.8" stroke-width="0.8" opacity="0.4"/>
  <circle cx="20" cy="80" r="0.8" stroke-width="0.8" opacity="0.4"/>
  <circle cx="80" cy="80" r="0.8" stroke-width="0.8" opacity="0.4"/>
  <circle cx="15" cy="50" r="0.6" stroke-width="0.8" opacity="0.3"/>
  <circle cx="85" cy="50" r="0.6" stroke-width="0.8" opacity="0.3"/>
  <circle cx="50" cy="10" r="0.8" stroke-width="0.8" opacity="0.4"/>
  <circle cx="50" cy="90" r="0.8" stroke-width="0.8" opacity="0.4"/>
  
  <!-- Shooting star accents -->
  <path d="M75 25 L78 22 M77 25 L75 23" stroke-width="0.5" opacity="0.5"/>
  <path d="M25 75 L22 78 M25 77 L23 75" stroke-width="0.5" opacity="0.5"/>
</svg>
