<svg xmlns="http://www.w3.org/2000/svg" viewBox="0 0 100 100" fill="none" stroke="currentColor" stroke-width="1.5">
  <!-- Steampunk gear background -->
  <circle cx="50" cy="50" r="42" stroke-width="2" opacity="0.5"/>
  <circle cx="50" cy="50" r="35" stroke-width="1.5" opacity="0.4"/>
  
  <!-- Gear teeth -->
  <rect x="48" y="8" width="4" height="8" stroke-width="1" opacity="0.6"/>
  <rect x="48" y="84" width="4" height="8" stroke-width="1" opacity="0.6"/>
  <rect x="8" y="48" width="8" height="4" stroke-width="1" opacity="0.6"/>
  <rect x="84" y="48" width="8" height="4" stroke-width="1" opacity="0.6"/>
  
  <!-- Diagonal gear teeth -->
  <rect x="22" y="22" width="4" height="6" stroke-width="1" opacity="0.5" transform="rotate(45 24 25)"/>
  <rect x="74" y="22" width="4" height="6" stroke-width="1" opacity="0.5" transform="rotate(-45 76 25)"/>
  <rect x="22" y="74" width="4" height="6" stroke-width="1" opacity="0.5" transform="rotate(-45 24 77)"/>
  <rect x="74" y="74" width="4" height="6" stroke-width="1" opacity="0.5" transform="rotate(45 76 77)"/>
  
  <!-- Mechanical tree -->
  <rect x="47" y="55" width="6" height="25" stroke-width="1.5"/>
  <circle cx="50" cy="57" r="2" stroke-width="1"/>
  
  <!-- Mechanical branches with rivets -->
  <rect x="35" y="48" width="15" height="3" stroke-width="1"/>
  <rect x="50" y="48" width="15" height="3" stroke-width="1"/>
  <circle cx="38" cy="50" r="1" stroke-width="0.8" opacity="0.8"/>
  <circle cx="62" cy="50" r="1" stroke-width="0.8" opacity="0.8"/>
  
  <rect x="30" y="38" width="20" height="3" stroke-width="1"/>
  <rect x="50" y="38" width="20" height="3" stroke-width="1"/>
  <circle cx="33" cy="40" r="1" stroke-width="0.8" opacity="0.8"/>
  <circle cx="67" cy="40" r="1" stroke-width="0.8" opacity="0.8"/>
  
  <rect x="25" y="28" width="25" height="3" stroke-width="1"/>
  <rect x="50" y="28" width="25" height="3" stroke-width="1"/>
  <circle cx="28" cy="30" r="1" stroke-width="0.8" opacity="0.8"/>
  <circle cx="72" cy="30" r="1" stroke-width="0.8" opacity="0.8"/>
  
  <!-- Central cogwheel -->
  <circle cx="50" cy="20" r="6" stroke-width="1.5"/>
  <circle cx="50" cy="20" r="3" stroke-width="1"/>
  <rect x="47" y="14" width="6" height="2" stroke-width="0.8"/>
  <rect x="47" y="24" width="6" height="2" stroke-width="0.8"/>
  <rect x="44" y="17" width="2" height="6" stroke-width="0.8"/>
  <rect x="54" y="17" width="2" height="6" stroke-width="0.8"/>
</svg>
