<svg xmlns="http://www.w3.org/2000/svg" viewBox="0 0 100 100" fill="none" stroke="currentColor" stroke-width="1.5">
  <!-- Circular background with wood grain -->
  <circle cx="50" cy="50" r="45" stroke-width="1" opacity="0.3"/>
  <circle cx="50" cy="50" r="40" stroke-width="0.8" opacity="0.2"/>
  <circle cx="50" cy="50" r="35" stroke-width="0.6" opacity="0.1"/>
  
  <!-- Tree silhouette in center -->
  <path d="M50 80 L50 45" stroke-width="2" stroke-linecap="round"/>
  <path d="M50 45 Q40 35 30 30 Q35 25 45 30 Q50 35 50 45" stroke-linecap="round"/>
  <path d="M50 45 Q60 35 70 30 Q65 25 55 30 Q50 35 50 45" stroke-linecap="round"/>
  <path d="M50 55 Q35 45 25 40 Q30 35 40 40 Q50 50 50 55" stroke-linecap="round"/>
  <path d="M50 55 Q65 45 75 40 Q70 35 60 40 Q50 50 50 55" stroke-linecap="round"/>
  
  <!-- Decorative corner elements -->
  <path d="M15 15 Q20 10 25 15 Q20 20 15 15" stroke-width="0.8" opacity="0.6"/>
  <path d="M85 15 Q80 10 75 15 Q80 20 85 15" stroke-width="0.8" opacity="0.6"/>
  <path d="M15 85 Q20 80 25 85 Q20 90 15 85" stroke-width="0.8" opacity="0.6"/>
  <path d="M85 85 Q80 80 75 85 Q80 90 85 85" stroke-width="0.8" opacity="0.6"/>
</svg>
