<svg xmlns="http://www.w3.org/2000/svg" viewBox="0 0 100 100" fill="none">
  <!-- Maple trunk -->
  <rect x="47" y="70" width="6" height="25" fill="none" stroke="#8B4513" stroke-width="2" opacity="0.6"/>
  
  <!-- Spreading branches -->
  <path d="M50,70 Q40,60 30,50 Q25,45 20,40" stroke="#A0522D" stroke-width="2" opacity="0.5"/>
  <path d="M50,70 Q60,60 70,50 Q75,45 80,40" stroke="#A0522D" stroke-width="2" opacity="0.5"/>
  <path d="M50,65 Q35,55 25,45 Q20,40 15,35" stroke="#CD853F" stroke-width="1.5" opacity="0.4"/>
  <path d="M50,65 Q65,55 75,45 Q80,40 85,35" stroke="#CD853F" stroke-width="1.5" opacity="0.4"/>
  <path d="M50,60 Q45,50 40,40 Q38,35 35,30" stroke="#CD853F" stroke-width="1.5" opacity="0.4"/>
  <path d="M50,60 Q55,50 60,40 Q62,35 65,30" stroke="#CD853F" stroke-width="1.5" opacity="0.4"/>
  
  <!-- Maple leaves (star-shaped) -->
  <path d="M25,42 L23,38 L27,38 Z M25,42 L21,44 L25,46 L29,44 Z" 
        fill="none" stroke="#DEB887" stroke-width="1" opacity="0.4"/>
  <path d="M75,42 L73,38 L77,38 Z M75,42 L71,44 L75,46 L79,44 Z" 
        fill="none" stroke="#DEB887" stroke-width="1" opacity="0.4"/>
  <path d="M40,32 L38,28 L42,28 Z M40,32 L36,34 L40,36 L44,34 Z" 
        fill="none" stroke="#CD853F" stroke-width="1" opacity="0.4"/>
  <path d="M60,32 L58,28 L62,28 Z M60,32 L56,34 L60,36 L64,34 Z" 
        fill="none" stroke="#CD853F" stroke-width="1" opacity="0.4"/>
  
  <!-- Secondary branches -->
  <path d="M35,48 Q30,43 28,38" stroke="#DEB887" stroke-width="1" opacity="0.3"/>
  <path d="M65,48 Q70,43 72,38" stroke="#DEB887" stroke-width="1" opacity="0.3"/>
</svg>
