<svg xmlns="http://www.w3.org/2000/svg" viewBox="0 0 100 100" fill="none">
  <!-- Birch trunk with characteristic markings -->
  <rect x="46" y="55" width="8" height="40" fill="none" stroke="#DEB887" stroke-width="2" opacity="0.6"/>
  
  <!-- Birch bark markings -->
  <path d="M47,60 L53,60" stroke="#8B4513" stroke-width="1" opacity="0.4"/>
  <path d="M47,70 L53,70" stroke="#8B4513" stroke-width="1" opacity="0.4"/>
  <path d="M47,80 L53,80" stroke="#8B4513" stroke-width="1" opacity="0.4"/>
  <path d="M47,90 L53,90" stroke="#8B4513" stroke-width="1" opacity="0.4"/>
  
  <!-- Thin upward branches -->
  <path d="M50,55 Q45,45 40,35 Q38,30 35,25" stroke="#A0522D" stroke-width="1.5" opacity="0.5"/>
  <path d="M50,55 Q55,45 60,35 Q62,30 65,25" stroke="#A0522D" stroke-width="1.5" opacity="0.5"/>
  <path d="M50,50 Q48,40 45,30 Q43,25 40,20" stroke="#CD853F" stroke-width="1" opacity="0.4"/>
  <path d="M50,50 Q52,40 55,30 Q57,25 60,20" stroke="#CD853F" stroke-width="1" opacity="0.4"/>
  <path d="M50,45 Q50,35 50,25 Q50,20 50,15" stroke="#CD853F" stroke-width="1" opacity="0.4"/>
  
  <!-- Small delicate leaves -->
  <ellipse cx="38" cy="28" rx="1.5" ry="3" fill="#DEB887" opacity="0.3" transform="rotate(20 38 28)"/>
  <ellipse cx="62" cy="28" rx="1.5" ry="3" fill="#DEB887" opacity="0.3" transform="rotate(-20 62 28)"/>
  <ellipse cx="43" cy="23" rx="1.5" ry="3" fill="#CD853F" opacity="0.3" transform="rotate(15 43 23)"/>
  <ellipse cx="57" cy="23" rx="1.5" ry="3" fill="#CD853F" opacity="0.3" transform="rotate(-15 57 23)"/>
  <ellipse cx="50" cy="18" rx="1.5" ry="3" fill="#DEB887" opacity="0.3"/>
</svg>
