<svg xmlns="http://www.w3.org/2000/svg" viewBox="0 0 100 100" fill="none" stroke="currentColor" stroke-width="1.5">
  <!-- Japanese style bonsai -->
  <path d="M50 80 Q45 70 40 60 Q35 50 45 40" stroke-linecap="round"/>
  <path d="M45 40 Q55 35 65 40 Q70 45 65 50" stroke-linecap="round"/>
  
  <!-- Horizontal layered branches -->
  <path d="M40 60 Q30 55 20 60" stroke-linecap="round"/>
  <path d="M45 50 Q35 45 25 50" stroke-linecap="round"/>
  <path d="M50 40 Q40 35 30 40" stroke-linecap="round"/>
  
  <path d="M65 50 Q75 45 85 50" stroke-linecap="round"/>
  <path d="M68 45 Q78 40 88 45" stroke-linecap="round"/>
  
  <!-- Foliage pads (traditional bonsai style) -->
  <ellipse cx="20" cy="60" rx="8" ry="4" stroke-width="1"/>
  <ellipse cx="25" cy="50" rx="7" ry="3" stroke-width="1"/>
  <ellipse cx="30" cy="40" rx="6" ry="3" stroke-width="1"/>
  
  <ellipse cx="85" cy="50" rx="8" ry="4" stroke-width="1"/>
  <ellipse cx="88" cy="45" rx="6" ry="3" stroke-width="1"/>
  
  <!-- Central foliage -->
  <ellipse cx="50" cy="35" rx="5" ry="3" stroke-width="1"/>
  
  <!-- Small detail branches -->
  <path d="M12 60 Q8 58 5 60" stroke-linecap="round"/>
  <path d="M18 50 Q14 48 10 50" stroke-linecap="round"/>
  <path d="M24 40 Q20 38 16 40" stroke-linecap="round"/>
  
  <path d="M93 50 Q97 48 100 50" stroke-linecap="round"/>
  <path d="M94 45 Q98 43 100 45" stroke-linecap="round"/>
</svg>
