<svg xmlns="http://www.w3.org/2000/svg" viewBox="0 0 100 100" fill="none" stroke="currentColor" stroke-width="1.5">
  <!-- Celtic knot circular frame -->
  <circle cx="50" cy="50" r="45" stroke-width="1.5" opacity="0.4"/>
  
  <!-- Celtic interwoven border -->
  <path d="M20 50 Q30 40 40 50 Q50 60 60 50 Q70 40 80 50" stroke-width="1" opacity="0.6"/>
  <path d="M50 20 Q40 30 50 40 Q60 50 50 60 Q40 70 50 80" stroke-width="1" opacity="0.6"/>
  
  <!-- Celtic tree of life -->
  <path d="M50 75 Q45 65 40 55 Q35 45 40 35 Q45 25 50 20 Q55 25 60 35 Q65 45 60 55 Q55 65 50 75" stroke-linecap="round"/>
  
  <!-- Interwoven branches -->
  <path d="M40 50 Q30 40 25 35 Q20 30 25 25 Q30 30 35 35" stroke-linecap="round" opacity="0.8"/>
  <path d="M60 50 Q70 40 75 35 Q80 30 75 25 Q70 30 65 35" stroke-linecap="round" opacity="0.8"/>
  <path d="M45 40 Q35 30 30 25 Q25 20 30 15 Q35 20 40 25" stroke-linecap="round" opacity="0.7"/>
  <path d="M55 40 Q65 30 70 25 Q75 20 70 15 Q65 20 60 25" stroke-linecap="round" opacity="0.7"/>
  
  <!-- Celtic spirals -->
  <path d="M25 50 Q20 45 25 40 Q30 45 25 50" stroke-width="1" opacity="0.5"/>
  <path d="M75 50 Q80 45 75 40 Q70 45 75 50" stroke-width="1" opacity="0.5"/>
  <path d="M50 25 Q45 20 50 15 Q55 20 50 25" stroke-width="1" opacity="0.5"/>
  <path d="M50 75 Q45 80 50 85 Q55 80 50 75" stroke-width="1" opacity="0.5"/>
  
  <!-- Celtic knot at base -->
  <path d="M45 70 Q50 65 55 70 Q50 75 45 70" stroke-width="1" opacity="0.6"/>
</svg>
